<svg width="17" height="30" viewBox="0 0 17 30" fill="none" xmlns="http://www.w3.org/2000/svg">
<path d="M17 15C17 15.3587 16.9463 15.6951 16.839 16.009C16.7318 16.3229 16.5475 16.6144 16.2862 16.8834L4.34732 29.2601C3.87149 29.7534 3.26589 30 2.53053 30C1.79516 30 1.18956 29.7534 0.713738 29.2601C0.237912 28.7668 0 28.139 0 27.3767C0 26.6144 0.237912 25.9865 0.713738 25.4933L10.8359 15L0.713738 4.50673C0.237912 4.01346 0 3.38565 0 2.62332C0 1.86099 0.237912 1.23319 0.713738 0.739916C1.18956 0.246643 1.79516 0 2.53053 0C3.26589 0 3.87149 0.246643 4.34732 0.739916L16.2862 13.1166C16.5458 13.3857 16.73 13.6771 16.839 13.991C16.948 14.3049 17.0017 14.6413 17 15Z" fill="#1A1A1A"/>
</svg>
