<svg width="17" height="30" viewBox="0 0 17 30" fill="none" xmlns="http://www.w3.org/2000/svg">
<path d="M4.1306e-05 15C4.13217e-05 14.6413 0.0536798 14.3049 0.160957 13.991C0.268234 13.6771 0.452508 13.3856 0.713781 13.1166L12.6527 0.739909C13.1285 0.246636 13.7341 -1.42757e-07 14.4695 -1.10613e-07C15.2048 -7.84689e-08 15.8104 0.246636 16.2863 0.739909C16.7621 1.23318 17 1.86099 17 2.62332C17 3.38565 16.7621 4.01345 16.2863 4.50673L6.16415 15L16.2863 25.4933C16.7621 25.9865 17 26.6143 17 27.3767C17 28.139 16.7621 28.7668 16.2863 29.2601C15.8104 29.7534 15.2048 30 14.4695 30C13.7341 30 13.1285 29.7534 12.6527 29.2601L0.713781 16.8834C0.45424 16.6143 0.269964 16.3229 0.160957 16.009C0.0519498 15.6951 -0.00168867 15.3587 4.1306e-05 15Z" fill="#1A1A1A"/>
</svg>
