<svg width="10" height="17" viewBox="0 0 10 17" fill="none" xmlns="http://www.w3.org/2000/svg">
<path d="M0.317557 7.53966C0.114476 7.72709 0.000252677 7.98136 0 8.24658L0 8.75342C0.00332569 9.01807 0.117086 9.27131 0.317557 9.46034L7.73683 16.3027C7.87235 16.429 8.05682 16.5 8.24925 16.5C8.44169 16.5 8.62616 16.429 8.76167 16.3027L9.78652 15.3557C9.92229 15.2328 9.99881 15.0646 9.99881 14.8889C9.99881 14.7133 9.92229 14.545 9.78652 14.4221L3.36321 8.5L9.78652 2.57793C9.92315 2.4527 10 2.28225 10 2.10443C10 1.92661 9.92315 1.75615 9.78652 1.63093L8.76167 0.697268C8.62616 0.571015 8.44169 0.500001 8.24925 0.500001C8.05682 0.500001 7.87235 0.571015 7.73683 0.697268L0.317557 7.53966Z" fill="white"/>
</svg>
