<svg width="9" height="13" viewBox="0 0 9 13" fill="none" xmlns="http://www.w3.org/2000/svg">
  <path d="M8.46873 6.5C8.46873 6.65546 8.44349 6.8012 8.39301 6.93722C8.34252 7.07324 8.2558 7.19955 8.13285 7.31614L2.51455 12.6794C2.29063 12.8931 2.00564 13 1.65959 13C1.31353 13 1.02854 12.8931 0.804627 12.6794C0.580709 12.4656 0.46875 12.1936 0.46875 11.8632C0.46875 11.5329 0.580708 11.2608 0.804626 11.0471L5.56797 6.5L0.804626 1.95292C0.580708 1.73916 0.468749 1.46712 0.468749 1.13677C0.468749 0.806428 0.580708 0.534382 0.804626 0.32063C1.02854 0.106878 1.31353 -3.69266e-08 1.65959 -5.20531e-08C2.00564 -6.71797e-08 2.29063 0.106878 2.51455 0.32063L8.13285 5.68386C8.25499 5.80045 8.34171 5.92676 8.39301 6.06278C8.4443 6.1988 8.46955 6.34454 8.46873 6.5Z" fill="#1A1A1A" />
</svg>