<svg width="9" height="13" viewBox="0 0 9 13" fill="none" xmlns="http://www.w3.org/2000/svg">
  <path d="M0.531269 6.5C0.531269 6.34454 0.55651 6.1988 0.606994 6.06278C0.657477 5.92676 0.744195 5.80045 0.867146 5.68386L6.48545 0.320627C6.70937 0.106876 6.99436 6.71797e-08 7.34041 5.20531e-08C7.68647 3.69266e-08 7.97146 0.106875 8.19537 0.320627C8.41929 0.534379 8.53125 0.806427 8.53125 1.13677C8.53125 1.46711 8.41929 1.73916 8.19537 1.95291L3.43203 6.5L8.19537 11.0471C8.41929 11.2608 8.53125 11.5329 8.53125 11.8632C8.53125 12.1936 8.41929 12.4656 8.19537 12.6794C7.97146 12.8931 7.68647 13 7.34041 13C6.99436 13 6.70937 12.8931 6.48545 12.6794L0.867146 7.31614C0.745009 7.19955 0.658291 7.07324 0.606994 6.93722C0.555696 6.8012 0.530455 6.65546 0.531269 6.5Z" fill="#1A1A1A" />
</svg>