<svg width="85" height="23" viewBox="0 0 85 23" fill="none" xmlns="http://www.w3.org/2000/svg">
  <g clip-path="url(#clip0_1016_37832)">
    <path opacity="0.5" d="M7.82406 8.73742C8.19276 9.09629 8.14279 9.68089 7.82406 10.0521L2.28598 15.4059L7.82406 20.7597C8.14655 21.1346 8.19402 21.7155 7.82406 22.0744C7.4391 22.4493 6.85668 22.4493 6.47172 22.0744L0.288716 16.0633C-0.0962386 15.6896 -0.0962386 15.1235 0.288716 14.7485L6.47172 8.73742C6.81795 8.33408 7.46037 8.38344 7.82406 8.73742ZM77.0973 8.73742C77.4433 8.33408 78.0843 8.38344 78.4494 8.73742L84.6326 14.7485C84.9786 15.0852 84.9786 15.7265 84.6326 16.0633L78.4494 22.0744C78.0843 22.4284 77.4433 22.4789 77.0973 22.0744C76.6811 21.7377 76.7322 21.1149 77.0973 20.7597L82.6042 15.4059L77.0973 10.0521C76.7345 9.7006 76.682 9.07411 77.0973 8.73742Z" fill="#01B280" />
    <path opacity="0.5" d="M15.3626 14.4315C15.3626 13.9419 15.785 13.4929 16.2962 13.4929H23.9616C23.5754 12.5532 22.9304 11.7712 22.0605 11.1755C20.4607 10.0804 18.291 10.0273 16.5862 10.9252C14.9164 11.8045 13.849 13.5558 13.849 15.4021C13.849 18.2202 16.22 20.5364 19.0984 20.5364C20.7332 20.5364 22.3292 19.8038 23.2854 18.5014C23.4866 18.1746 23.6703 17.8465 23.8641 17.5308C24.069 17.0671 24.6527 16.8981 25.1202 17.093C25.6301 17.3051 25.8176 17.828 25.6039 18.3139C25.3776 18.8146 25.089 19.2537 24.799 19.6286C23.4641 21.3577 21.3131 22.353 19.0984 22.353C15.1139 22.353 11.9805 19.2229 11.9805 15.4021C11.9805 11.5492 15.1776 8.4832 19.0984 8.4832C21.6569 8.4832 24.054 9.79298 25.3139 11.9587C25.7326 12.6789 26.0226 13.4608 26.1513 14.2748C26.215 14.7756 25.9138 15.2751 25.3776 15.3392C23.8553 15.3392 22.3305 15.3713 20.8057 15.3713H16.2962C15.785 15.3713 15.3626 14.9211 15.3626 14.4315ZM41.5445 10.7377C41.7057 10.9252 41.802 11.1447 41.802 11.395C41.802 11.9106 41.387 12.2719 40.8683 12.2719C40.5784 12.2719 40.3534 12.1782 40.1596 11.9895C39.6772 11.458 39.0973 11.0189 38.4211 10.7377C37.1338 10.2012 35.5177 10.1149 34.2341 10.7069C33.8141 10.8882 33.1967 11.3322 32.7855 11.3322C32.4281 11.3322 32.1381 11.1435 31.9781 10.8807C31.7494 10.5046 31.7857 9.9792 32.2706 9.64127C32.6718 9.38108 33.0517 9.19976 33.4942 9.01602C35.2702 8.27604 37.4012 8.31179 39.1623 9.0789C40.0634 9.45382 40.8683 10.0174 41.5445 10.7377ZM36.2314 20.5364C36.77 20.5364 37.165 20.9211 37.165 21.4453C37.165 21.9682 36.77 22.353 36.2314 22.353C34.3753 22.353 32.4918 21.6291 31.1744 20.3489C30.5308 19.7224 30.0484 18.9713 29.6609 18.1264C28.891 16.2876 28.9297 14.191 29.8221 12.3965C30.0909 11.9414 30.5708 11.7465 31.0782 11.9587C31.5619 12.1597 31.7569 12.7381 31.4969 13.1797C30.902 14.4931 30.7558 16.0829 31.4007 17.4062C31.6907 18.0327 32.0444 18.5643 32.528 19.0342C33.5129 19.9925 34.8366 20.5364 36.2314 20.5364ZM45.6665 16.6551C46.2064 16.6551 46.6014 17.0387 46.6014 17.5628V21.4453C46.6014 21.9473 46.1852 22.353 45.6665 22.353C45.1728 22.353 44.7329 21.9263 44.7329 21.4453V17.5628C44.7329 17.0596 45.1503 16.6551 45.6665 16.6551ZM50.7232 8.4832C52.2931 8.4832 53.8306 9.0937 54.9416 10.1741C56.054 11.2545 56.6816 12.748 56.6816 14.2748V21.4453C56.6816 21.9473 56.2654 22.353 55.7466 22.353C55.2291 22.353 54.8129 21.9473 54.8129 21.4453V14.2748C54.8129 12.1104 52.968 10.2987 50.7232 10.2987C48.4937 10.2987 46.6014 12.0796 46.6014 14.2748C46.6014 14.7719 46.1989 15.2455 45.6665 15.2455C45.1566 15.2455 44.7329 14.7497 44.7329 14.2748V1.40772C44.7329 0.904525 45.1503 0.5 45.6665 0.5C46.2064 0.5 46.6014 0.883559 46.6014 1.40772V10.0483C47.7352 9.07642 49.2048 8.4832 50.7232 8.4832ZM69.5625 9.01602C71.3071 9.76956 72.5584 11.0201 73.3309 12.7098C74.4368 15.349 73.8618 18.2991 71.7846 20.3181C69.72 22.3246 66.6554 22.8883 63.9595 21.8202C61.3273 20.6831 59.611 18.2596 59.611 15.4341C59.611 14.244 59.9009 13.1168 60.5135 12.0832C60.7848 11.622 61.2757 11.4333 61.7695 11.7083C62.2484 11.9747 62.3668 12.4816 62.1559 12.9601C61.7044 13.7112 61.4796 14.5252 61.4796 15.4341C61.4796 17.5135 62.7709 19.2858 64.7004 20.1294C66.7078 21.0087 68.8988 20.4537 70.465 19.0342C71.9235 17.6159 72.4906 15.2738 71.5923 13.43C70.9959 12.1424 70.1311 11.3087 68.8226 10.7069C67.3753 10.0729 65.5843 10.1815 64.2168 10.9572C63.7616 11.2101 63.1834 11.0127 62.9284 10.5811C62.6631 10.1297 62.8197 9.58701 63.2832 9.32924C65.2294 8.32659 67.5225 8.2082 69.5625 9.01602Z" fill="white" />
  </g>
  <defs>
    <clipPath id="clip0_1016_37832">
      <rect width="85" height="22" fill="white" transform="translate(0 0.5)" />
    </clipPath>
  </defs>
</svg>