<svg width="20" height="50" viewBox="0 0 20 50" fill="none" xmlns="http://www.w3.org/2000/svg">
<path d="M5.41536 46.7507V32.2507H2.9987C2.31398 32.2507 1.74042 32.0187 1.27803 31.5547C0.815643 31.0907 0.583642 30.5171 0.582031 29.834V17.7507C0.582031 16.4215 1.0557 15.2841 2.00303 14.3383C2.95037 13.3926 4.08781 12.9189 5.41536 12.9173H15.082C16.4112 12.9173 17.5494 13.391 18.4968 14.3383C19.4441 15.2857 19.917 16.4231 19.9154 17.7507V29.834C19.9154 30.5187 19.6834 31.0931 19.2194 31.5571C18.7554 32.0211 18.1818 32.2523 17.4987 32.2507H15.082V46.7507C15.082 47.4354 14.85 48.0097 14.386 48.4737C13.922 48.9377 13.3485 49.1689 12.6654 49.1673H7.83203C7.14731 49.1673 6.57375 48.9353 6.11136 48.4713C5.64898 48.0073 5.41698 47.4338 5.41536 46.7507ZM10.2487 10.5007C8.91953 10.5007 7.78209 10.0278 6.83637 9.08208C5.89064 8.13636 5.41698 6.99811 5.41536 5.66733C5.41375 4.33656 5.88742 3.19911 6.83637 2.255C7.78531 1.31089 8.92275 0.837223 10.2487 0.834001C11.5746 0.830778 12.7129 1.30445 13.6634 2.255C14.614 3.20556 15.0869 4.343 15.082 5.66733C15.0772 6.99167 14.6043 8.12992 13.6634 9.08208C12.7226 10.0343 11.5843 10.5071 10.2487 10.5007Z" fill="#262267"/>
</svg>
