<svg width="333" height="96" viewBox="0 0 333 96" fill="none" xmlns="http://www.w3.org/2000/svg">
  <g clip-path="url(#clip0_1016_37763)">
    <mask id="mask0_1016_37763" style="mask-type:luminance" maskUnits="userSpaceOnUse" x="-71" y="-57" width="448" height="209">
      <path d="M-70.2188 -56.9966H376.618V151.406H-70.2188V-56.9966Z" fill="white" />
    </mask>
    <g mask="url(#mask0_1016_37763)">
      <path d="M118.853 32.5961C120.477 32.5961 122.054 32.7123 123.586 32.9455C125.116 33.1779 126.49 33.4692 127.709 33.82L126.725 38.4519C125.413 38.1319 124.156 37.9064 122.953 37.7748C121.75 37.6431 120.648 37.5787 119.65 37.5787C116.338 37.5787 113.886 38.489 112.293 40.3102C110.699 42.1315 109.903 44.9064 109.903 48.6364C109.903 50.153 110.044 51.5205 110.325 52.7445C110.605 53.9684 111.067 55.0117 111.707 55.8709C112.348 56.73 113.19 57.3931 114.238 57.8588C115.283 58.3265 116.572 58.559 118.103 58.559C118.727 58.559 119.438 58.5149 120.235 58.4273C121.032 58.3398 121.742 58.2236 122.367 58.0779V47.3697H128.693V62.0117C126.881 62.595 125.023 63.0165 123.116 63.2798C121.211 63.5416 119.415 63.6719 117.729 63.6719C114.791 63.6719 112.356 63.2644 110.418 62.4479C108.482 61.6329 106.935 60.5259 105.779 59.1275C104.623 57.7285 103.804 56.0957 103.32 54.2317C102.835 52.3664 102.594 50.3855 102.594 48.287C102.594 46.5379 102.829 44.732 103.296 42.8667C103.765 41.002 104.6 39.3124 105.803 37.7965C107.006 36.2812 108.661 35.0363 110.77 34.0602C112.877 33.0834 115.572 32.5961 118.853 32.5961Z" fill="white" />
      <path d="M135.234 41.7731H141.935V63.2344H135.234V41.7731ZM142.545 35.8283C142.545 36.7617 142.208 37.5487 141.537 38.1887C140.865 38.8308 139.873 39.1508 138.561 39.1508C137.311 39.1508 136.359 38.8308 135.704 38.1887C135.047 37.5487 134.719 36.7617 134.719 35.8283C134.719 34.867 135.055 34.0652 135.727 33.4252C136.399 32.7852 137.343 32.4632 138.561 32.4632C139.873 32.4632 140.865 32.7852 141.537 33.4252C142.208 34.0652 142.545 34.867 142.545 35.8283Z" fill="white" />
      <path d="M159.46 59.2188C160.049 59.2188 160.625 59.1103 161.185 58.8925C161.744 58.6734 162.242 58.3044 162.676 57.7806C163.112 57.2583 163.461 56.5399 163.726 55.6254C163.99 54.7095 164.121 53.5563 164.121 52.1608C164.121 50.9123 164.005 49.8893 163.772 49.0897C163.539 48.2914 163.222 47.6662 162.816 47.2159C162.412 46.7657 161.931 46.4534 161.371 46.2805C160.813 46.1054 160.222 46.0186 159.599 46.0186C159.226 46.0186 158.822 46.069 158.388 46.1712C157.952 46.2727 157.517 46.403 157.082 46.5633C156.647 46.723 156.235 46.8973 155.847 47.0857C155.458 47.274 155.14 47.4701 154.891 47.6739V58.0425C155.42 58.3625 156.12 58.6384 156.989 58.8694C157.859 59.1026 158.683 59.2188 159.46 59.2188ZM154.844 43.8325C155.965 42.9888 157.133 42.3761 158.348 41.9973C159.563 41.6192 160.7 41.4294 161.759 41.4294C163.533 41.4294 165.007 41.72 166.174 42.304C167.341 42.8859 168.268 43.6729 168.954 44.663C169.639 45.6538 170.122 46.8133 170.402 48.1381C170.682 49.465 170.823 50.885 170.823 52.3995C170.823 53.9729 170.652 55.4447 170.309 56.8143C169.966 58.1846 169.406 59.3722 168.626 60.377C167.847 61.3818 166.836 62.1765 165.589 62.7584C164.343 63.341 162.818 63.6336 161.011 63.6336C160.637 63.6336 160.194 63.6119 159.68 63.5671C159.165 63.523 158.629 63.4586 158.067 63.3711C157.507 63.2842 156.946 63.1603 156.386 62.9993C155.824 62.8396 155.312 62.6281 154.844 62.3649V72.375H148.145V41.7354H154.466L154.609 43.6582L154.844 43.8325Z" fill="white" />
      <path d="M186.459 45.1774C185.61 45.1774 184.904 45.3077 184.339 45.5709C183.774 45.8328 183.311 46.1899 182.95 46.6416C182.587 47.0939 182.312 47.6176 182.125 48.2149C181.936 48.8122 181.81 49.4326 181.748 50.0726H190.651C190.62 48.6456 190.313 47.472 189.732 46.5547C189.15 45.6354 188.06 45.1774 186.459 45.1774ZM186.199 41.1996C188.667 41.1996 190.603 41.5644 192.009 42.2933C193.414 43.0208 194.469 43.9248 195.172 45.0031C195.876 46.0814 196.313 47.2255 196.484 48.4341C196.656 49.6426 196.741 50.7287 196.741 51.69V53.9188H181.654C181.654 55.5951 182.099 56.8583 182.989 57.7104C183.879 58.5633 185.355 58.989 187.418 58.989C188.667 58.989 189.917 58.865 191.167 58.6186C192.414 58.37 193.633 58.0423 194.82 57.6334L196.18 61.4565C194.65 62.2365 193.041 62.7848 191.354 63.1034C189.667 63.4192 188.027 63.5781 186.434 63.5781C184.122 63.5781 182.221 63.2798 180.728 62.6819C179.236 62.086 178.063 61.2773 177.211 60.2571C176.357 59.2376 175.768 58.064 175.443 56.7371C175.115 55.4123 174.953 54.0063 174.953 52.5205C174.953 51.3546 175.109 50.102 175.422 48.7618C175.735 47.4216 176.313 46.1976 177.157 45.0899C177.999 43.9829 179.147 43.0572 180.6 42.3143C182.053 41.5714 183.919 41.1996 186.199 41.1996Z" fill="white" />
      <path d="M208.4 45.5766C209.023 44.9933 209.712 44.4402 210.46 43.915C211.211 43.3906 211.976 42.9249 212.756 42.516C213.538 42.1085 214.303 41.7885 215.053 41.5539C215.802 41.3214 216.505 41.2052 217.162 41.2052C218.036 41.2052 218.474 41.6863 218.474 42.6476C218.474 43.0552 218.409 43.5439 218.286 44.1125C218.16 44.6803 217.996 45.2629 217.794 45.8602C217.59 46.4575 217.364 47.0176 217.114 47.5435C216.865 48.0672 216.615 48.4902 216.365 48.8101L208.539 48.7226V63.2344H201.84V41.7731H208.445C208.445 42.2695 208.415 42.8808 208.352 43.6097C208.289 44.3372 208.227 44.9499 208.165 45.445L208.4 45.5766Z" fill="white" />
      <path d="M229.497 37.7525V47.2816H234.042C234.666 47.2816 235.267 47.2018 235.845 47.0428C236.423 46.8818 236.93 46.6136 237.369 46.2369C237.806 45.8602 238.157 45.3665 238.423 44.7574C238.688 44.1475 238.821 43.4074 238.821 42.5377C238.821 40.8264 238.345 39.601 237.392 38.8616C236.44 38.1215 235.244 37.7525 233.807 37.7525H229.497ZM245.85 42.3858C245.85 43.4641 245.663 44.5564 245.287 45.6641C244.913 46.7712 244.303 47.7682 243.46 48.6568C242.617 49.5468 241.532 50.2743 240.203 50.8428C238.875 51.4107 237.259 51.6957 235.354 51.6957H229.497L229.543 63.2344H222.562V33.1634H234.791C238.478 33.1634 241.241 33.9938 243.085 35.654C244.927 37.3142 245.85 39.5597 245.85 42.3858Z" fill="white" />
      <path d="M256.892 45.5766C257.516 44.9933 258.204 44.4402 258.952 43.915C259.703 43.3906 260.468 42.9249 261.249 42.516C262.03 42.1085 262.795 41.7885 263.546 41.5539C264.295 41.3214 264.997 41.2052 265.654 41.2052C266.528 41.2052 266.966 41.6863 266.966 42.6476C266.966 43.0552 266.902 43.5439 266.779 44.1125C266.652 44.6803 266.488 45.2629 266.286 45.8602C266.083 46.4575 265.856 47.0176 265.606 47.5435C265.357 48.0672 265.107 48.4902 264.858 48.8101L257.031 48.7226V63.2344H250.332V41.7731H256.938C256.938 42.2695 256.907 42.8808 256.845 43.6097C256.782 44.3372 256.719 44.9499 256.657 45.445L256.892 45.5766Z" fill="white" />
      <path d="M285.455 52.5267C285.455 51.6809 285.393 50.8511 285.268 50.0347C285.143 49.2196 284.917 48.4907 284.588 47.85C284.261 47.2086 283.8 46.6905 283.207 46.2984C282.612 45.9049 281.831 45.7074 280.864 45.7074C279.895 45.7074 279.099 45.9049 278.475 46.2984C277.849 46.6905 277.35 47.2086 276.974 47.85C276.6 48.4907 276.341 49.2196 276.202 50.0347C276.061 50.8511 275.99 51.6809 275.99 52.5267C275.99 53.4888 276.052 54.3773 276.177 55.1917C276.302 56.0081 276.545 56.716 276.904 57.3119C277.263 57.9106 277.756 58.3839 278.379 58.7333C279.005 59.0827 279.833 59.2571 280.864 59.2571C281.802 59.2571 282.573 59.0764 283.182 58.7116C283.792 58.3475 284.261 57.8525 284.588 57.2244C284.917 56.5998 285.143 55.8779 285.268 55.0614C285.393 54.2471 285.455 53.4013 285.455 52.5267ZM292.391 52.4826C292.391 53.9677 292.187 55.3898 291.782 56.7433C291.375 58.0989 290.703 59.2942 289.767 60.3277C288.829 61.3633 287.611 62.1797 286.112 62.7756C284.613 63.3729 282.768 63.6719 280.583 63.6719C278.458 63.6719 276.662 63.3806 275.194 62.7987C273.725 62.2147 272.539 61.4214 271.632 60.4152C270.726 59.4104 270.079 58.2306 269.688 56.875C269.297 55.5194 269.102 54.0707 269.102 52.5267C269.102 51.0122 269.32 49.5767 269.758 48.2211C270.195 46.8655 270.884 45.6801 271.82 44.6585C272.757 43.6397 273.967 42.8233 275.451 42.2106C276.934 41.5993 278.739 41.2926 280.864 41.2926C283.018 41.2926 284.831 41.5916 286.299 42.1889C287.767 42.7861 288.954 43.6026 289.86 44.6368C290.766 45.6724 291.414 46.8655 291.805 48.2211C292.194 49.5767 292.391 50.9968 292.391 52.4826Z" fill="white" />
      <path d="M326.153 63.2344V49.6399C326.153 48.4467 325.943 47.5645 325.524 46.9966C325.104 46.4281 324.305 46.1445 323.125 46.1445C322.411 46.1445 321.581 46.2901 320.632 46.5814C319.685 46.8727 318.886 47.2228 318.233 47.6303C318.297 48.0959 318.344 48.577 318.375 49.0734C318.406 49.5685 318.421 50.0201 318.421 50.4276V63.2344H311.767C311.767 60.874 311.759 58.5353 311.744 56.219C311.728 53.9027 311.722 51.5641 311.722 49.2037C311.722 47.1927 310.798 46.1879 308.956 46.1879C308.174 46.1879 307.34 46.3349 306.451 46.6255C305.559 46.9168 304.708 47.2949 303.896 47.7605V63.2344H297.195V41.7731H303.475L303.615 43.9143L303.802 44.0018C305.112 43.0706 306.491 42.3858 307.943 41.9481C309.391 41.5112 310.663 41.292 311.754 41.292C314.344 41.292 316.199 42.2247 317.322 44.0894C317.882 43.6818 318.514 43.3107 319.218 42.9753C319.919 42.6399 320.644 42.3494 321.391 42.1008C322.141 41.8543 322.872 41.6569 323.59 41.5112C324.308 41.3656 324.979 41.292 325.602 41.292C327.131 41.292 328.37 41.4972 329.321 41.9047C330.274 42.3122 331.006 42.8654 331.52 43.5656C332.034 44.2651 332.385 45.0739 332.572 45.9918C332.76 46.9091 332.853 47.8635 332.853 48.8543V63.2344H326.153Z" fill="white" />
    </g>
    <path d="M-0.0546875 24.0187V72.0377C2.62134 73.436 5.27184 74.8202 8.54838 76.5315C8.70676 74.4568 9.05581 30.2497 9.12938 28.8458C21.0443 22.5252 32.746 16.3174 44.6293 10.0121C56.6035 16.3748 68.4028 22.6443 80.0902 28.8542V67.1966C68.2347 73.4927 56.5292 79.7083 44.6233 86.0317C38.2001 82.6077 31.954 79.2783 25.9114 76.0568V38.1296C32.1425 34.8318 38.3067 31.5682 44.5903 28.2416C51.0383 31.669 57.2963 34.9949 63.4411 38.2613V57.5697L43.6497 68.4275L43.7211 47.6221C43.7211 47.6221 50.2313 43.8796 54.0318 41.7293C50.7313 39.9592 47.454 38.2459 44.6121 36.7223C40.9204 38.7017 37.3767 40.6013 33.8839 42.4743V71.8661C37.5913 73.8316 41.2327 75.7613 44.6436 77.5699C54.2645 72.4536 63.354 67.6195 72.4893 62.7623V33.2647C63.0462 28.25 53.7563 23.3164 44.6016 18.4543C35.091 23.5216 25.9977 28.3669 16.8039 33.2654V81.0323C26.1103 85.989 35.3109 90.8868 44.5745 95.8203C52.508 91.5737 59.9799 87.5966 67.4292 83.5824C74.8328 79.5927 82.5088 76.0155 89.2578 71.7226V23.9606C74.2863 16.0044 59.4432 8.11604 44.6203 0.238914C29.4852 8.29529 14.6676 16.1822 -0.0546875 24.0187Z" fill="url(#paint0_linear_1016_37763)" />
  </g>
  <defs>
    <linearGradient id="paint0_linear_1016_37763" x1="-0.473205" y1="71.3336" x2="86.6449" y2="19.5639" gradientUnits="userSpaceOnUse">
      <stop stop-color="#D32426" />
      <stop offset="1" stop-color="#262167" />
    </linearGradient>
    <clipPath id="clip0_1016_37763">
      <rect width="333" height="96" fill="white" />
    </clipPath>
  </defs>
</svg>