<svg width="204" height="62" viewBox="0 0 204 62" fill="none" xmlns="http://www.w3.org/2000/svg">
<path d="M0 15.4251V46.5731C1.61798 47.4801 3.22052 48.3781 5.20158 49.4881C5.29734 48.1423 5.50838 19.4669 5.55286 18.5562C12.7568 14.4563 19.8319 10.4295 27.0168 6.33952C34.2566 10.4667 41.3907 14.5335 48.4571 18.5617V43.4329C41.289 47.5169 34.2117 51.5487 27.0132 55.6505C23.1296 53.4295 19.3531 51.2699 15.6996 49.1802V24.5783C19.467 22.4391 23.194 20.3221 26.9932 18.1643C30.8918 20.3875 34.6755 22.5449 38.3907 24.6637V37.1883L26.4245 44.2313L26.4676 30.7357C26.4676 30.7357 30.4039 28.308 32.7017 26.9132C30.7061 25.7651 28.7246 24.6537 27.0064 23.6654C24.7743 24.9493 22.6317 26.1815 20.5199 27.3965V46.4618C22.7615 47.7367 24.9631 48.9885 27.0254 50.1616C32.8424 46.8429 38.3381 43.7072 43.8614 40.5565V21.4226C38.152 18.1697 32.5352 14.9695 27 11.8156C21.2497 15.1026 15.7518 18.2456 10.193 21.423V52.4076C15.8199 55.6228 21.3827 58.7998 26.9837 62C31.7804 59.2454 36.298 56.6656 40.802 54.0617C45.2784 51.4738 49.9194 49.1534 54 46.3687V15.3874C44.948 10.2264 35.9735 5.10959 27.0113 0C17.8604 5.22586 8.90136 10.3418 0 15.4251Z" fill="url(#paint0_linear_979_2182)"/>
<path d="M73.886 18.1184C74.8732 18.1184 75.8321 18.1939 76.7636 18.3454C77.6937 18.4964 78.5294 18.6856 79.2701 18.9136L78.6723 21.9229C77.8745 21.715 77.11 21.5685 76.3789 21.483C75.6473 21.3975 74.9773 21.3556 74.3703 21.3556C72.3566 21.3556 70.866 21.947 69.8976 23.1303C68.9282 24.3136 68.4439 26.1165 68.4439 28.5399C68.4439 29.5253 68.5297 30.4137 68.7004 31.209C68.8711 32.0042 69.1518 32.682 69.5411 33.2402C69.9304 33.7984 70.4425 34.2292 71.0796 34.5318C71.7154 34.8357 72.499 34.9867 73.4296 34.9867C73.8093 34.9867 74.2416 34.958 74.7258 34.9012C75.2109 34.8443 75.6422 34.7688 76.0224 34.6742V27.7169H79.8685V37.23C78.7672 37.6089 77.6372 37.8828 76.4779 38.0538C75.3196 38.224 74.2274 38.3086 73.2023 38.3086C71.416 38.3086 69.9354 38.0438 68.7575 37.5134C67.58 36.9838 66.6398 36.2646 65.9369 35.3561C65.2341 34.4471 64.7357 33.3863 64.4413 32.1752C64.1465 30.9633 64 29.6763 64 28.3129C64 27.1765 64.1429 26.0032 64.4272 24.7913C64.712 23.5798 65.2199 22.482 65.9516 21.4971C66.6827 20.5126 67.6891 19.7038 68.9711 19.0696C70.2526 18.435 71.8911 18.1184 73.886 18.1184Z" fill="#262167"/>
<path d="M83.8448 24.0837H87.9191V38.0273H83.8448V24.0837ZM88.2896 20.2214C88.2896 20.8278 88.0847 21.3392 87.6767 21.755C87.2682 22.1721 86.6653 22.38 85.8676 22.38C85.1077 22.38 84.5285 22.1721 84.13 21.755C83.7307 21.3392 83.5312 20.8278 83.5312 20.2214C83.5312 19.5968 83.7357 19.0759 84.1442 18.6601C84.5527 18.2443 85.1268 18.035 85.8676 18.035C86.6653 18.035 87.2682 18.2443 87.6767 18.6601C88.0847 19.0759 88.2896 19.5968 88.2896 20.2214Z" fill="#262167"/>
<path d="M98.575 35.4172C98.9333 35.4172 99.2838 35.3467 99.6243 35.2052C99.9639 35.0628 100.266 34.823 100.531 34.4827C100.795 34.1434 101.008 33.6766 101.169 33.0825C101.329 32.4874 101.409 31.7381 101.409 30.8315C101.409 30.0203 101.339 29.3557 101.197 28.8362C101.055 28.3175 100.863 27.9113 100.616 27.6188C100.37 27.3262 100.078 27.1233 99.737 27.011C99.3979 26.8972 99.0383 26.8408 98.6599 26.8408C98.4331 26.8408 98.1876 26.8736 97.9233 26.94C97.6586 27.006 97.3939 27.0906 97.1292 27.1948C96.8649 27.2985 96.6144 27.4118 96.3784 27.5341C96.142 27.6565 95.9485 27.7839 95.7974 27.9163V34.6529C96.1192 34.8608 96.5445 35.04 97.0726 35.1902C97.6015 35.3416 98.1027 35.4172 98.575 35.4172ZM95.7687 25.4205C96.4505 24.8723 97.1602 24.4743 97.8991 24.2282C98.638 23.9825 99.329 23.8592 99.973 23.8592C101.052 23.8592 101.948 24.048 102.658 24.4274C103.367 24.8055 103.93 25.3168 104.348 25.9601C104.764 26.6038 105.058 27.3572 105.228 28.2179C105.398 29.08 105.484 30.0026 105.484 30.9866C105.484 32.0088 105.38 32.9651 105.171 33.8549C104.963 34.7452 104.622 35.5168 104.148 36.1696C103.675 36.8224 103.06 37.3388 102.302 37.7168C101.544 38.0953 100.617 38.2855 99.5184 38.2855C99.2907 38.2855 99.0214 38.2714 98.7088 38.2423C98.3961 38.2136 98.0698 38.1718 97.7284 38.1149C97.388 38.0585 97.0466 37.978 96.7061 37.8733C96.3647 37.7696 96.053 37.6322 95.7687 37.4612V43.9648H91.6953V24.058H95.5391L95.6258 25.3073L95.7687 25.4205Z" fill="#262167"/>
<path d="M114.992 26.3066C114.476 26.3066 114.046 26.3912 113.703 26.5623C113.359 26.7324 113.078 26.9644 112.858 27.2579C112.638 27.5518 112.471 27.892 112.357 28.2801C112.242 28.6682 112.165 29.0712 112.127 29.487H117.541C117.522 28.5599 117.335 27.7974 116.982 27.2015C116.628 26.6041 115.965 26.3066 114.992 26.3066ZM114.834 23.7222C116.334 23.7222 117.512 23.9592 118.366 24.4328C119.221 24.9054 119.862 25.4927 120.289 26.1933C120.718 26.8939 120.983 27.6373 121.087 28.4225C121.192 29.2077 121.243 29.9133 121.243 30.5379V31.986H112.07C112.07 33.0751 112.341 33.8958 112.882 34.4494C113.423 35.0035 114.321 35.2801 115.575 35.2801C116.334 35.2801 117.094 35.1996 117.854 35.0395C118.613 34.878 119.354 34.665 120.076 34.3994L120.902 36.8833C119.972 37.3901 118.993 37.7463 117.968 37.9533C116.942 38.1584 115.945 38.2617 114.977 38.2617C113.571 38.2617 112.415 38.0679 111.507 37.6794C110.6 37.2923 109.887 36.7668 109.369 36.104C108.85 35.4416 108.491 34.6791 108.294 33.8171C108.095 32.9563 107.996 32.0428 107.996 31.0775C107.996 30.32 108.091 29.5061 108.281 28.6354C108.471 27.7647 108.823 26.9694 109.336 26.2498C109.848 25.5305 110.546 24.9291 111.43 24.4464C112.313 23.9637 113.447 23.7222 114.834 23.7222Z" fill="#262167"/>
<path d="M128.332 26.5549C128.711 26.176 129.13 25.8166 129.585 25.4754C130.041 25.1346 130.506 24.8321 130.981 24.5664C131.456 24.3017 131.921 24.0938 132.378 23.9413C132.833 23.7903 133.26 23.7148 133.66 23.7148C134.191 23.7148 134.458 24.0273 134.458 24.652C134.458 24.9167 134.418 25.2343 134.343 25.6037C134.267 25.9726 134.167 26.3511 134.044 26.7392C133.92 27.1272 133.783 27.4912 133.631 27.8328C133.479 28.1731 133.327 28.4479 133.175 28.6558L128.417 28.5989V38.0273H124.344V24.0837H128.36C128.36 24.4063 128.341 24.8034 128.303 25.277C128.265 25.7497 128.227 26.1478 128.189 26.4694L128.332 26.5549Z" fill="#262167"/>
<path d="M141.162 21.4715V27.6627H143.925C144.304 27.6627 144.67 27.6108 145.021 27.5075C145.373 27.4029 145.681 27.2287 145.948 26.9839C146.213 26.7392 146.427 26.4184 146.589 26.0227C146.75 25.6264 146.83 25.1455 146.83 24.5805C146.83 23.4687 146.541 22.6726 145.962 22.1921C145.383 21.7113 144.656 21.4715 143.782 21.4715H141.162ZM151.105 24.4818C151.105 25.1824 150.99 25.8921 150.762 26.6118C150.535 27.331 150.164 27.9789 149.651 28.5562C149.139 29.1344 148.479 29.607 147.671 29.9764C146.863 30.3454 145.881 30.5306 144.723 30.5306H141.162L141.189 38.0273H136.945V18.4899H144.38C146.622 18.4899 148.302 19.0295 149.423 20.1081C150.543 21.1867 151.105 22.6457 151.105 24.4818Z" fill="#262167"/>
<path d="M157.813 26.5549C158.192 26.176 158.61 25.8166 159.065 25.4754C159.522 25.1346 159.987 24.8321 160.462 24.5664C160.937 24.3017 161.402 24.0938 161.858 23.9413C162.314 23.7903 162.741 23.7148 163.14 23.7148C163.671 23.7148 163.938 24.0273 163.938 24.652C163.938 24.9167 163.899 25.2343 163.824 25.6037C163.747 25.9726 163.647 26.3511 163.524 26.7392C163.401 27.1272 163.263 27.4912 163.111 27.8328C162.959 28.1731 162.807 28.4479 162.656 28.6558L157.898 28.5989V38.0273H153.824V24.0837H157.841C157.841 24.4063 157.822 24.8034 157.784 25.277C157.746 25.7497 157.708 26.1478 157.67 26.4694L157.813 26.5549Z" fill="#262167"/>
<path d="M175.181 31.0675C175.181 30.5179 175.143 29.9788 175.068 29.4484C174.991 28.9188 174.854 28.4453 174.654 28.029C174.456 27.6123 174.175 27.2756 173.814 27.0209C173.453 26.7652 172.978 26.6369 172.39 26.6369C171.801 26.6369 171.317 26.7652 170.937 27.0209C170.557 27.2756 170.253 27.6123 170.025 28.029C169.797 28.4453 169.64 28.9188 169.555 29.4484C169.47 29.9788 169.427 30.5179 169.427 31.0675C169.427 31.6925 169.465 32.2699 169.54 32.7989C169.616 33.3294 169.764 33.7893 169.983 34.1765C170.2 34.5654 170.5 34.873 170.879 35.1C171.26 35.327 171.763 35.4403 172.39 35.4403C172.96 35.4403 173.429 35.3229 173.799 35.0859C174.17 34.8493 174.456 34.5277 174.654 34.1196C174.854 33.7138 174.991 33.2448 175.068 32.7143C175.143 32.1852 175.181 31.6357 175.181 31.0675ZM179.398 31.0388C179.398 32.0037 179.275 32.9277 179.028 33.8071C178.781 34.6878 178.372 35.4644 177.803 36.1358C177.233 36.8087 176.492 37.3391 175.581 37.7263C174.669 38.1143 173.548 38.3086 172.219 38.3086C170.927 38.3086 169.835 38.1193 168.942 37.7413C168.05 37.3619 167.328 36.8464 166.777 36.1927C166.226 35.5399 165.833 34.7733 165.595 33.8926C165.357 33.0118 165.238 32.0706 165.238 31.0675C165.238 30.0835 165.371 29.1509 165.638 28.2701C165.903 27.3894 166.322 26.6192 166.891 25.9554C167.461 25.2935 168.197 24.7631 169.099 24.365C170.001 23.9678 171.098 23.7686 172.39 23.7686C173.7 23.7686 174.802 23.9628 175.694 24.3509C176.587 24.7389 177.309 25.2694 177.86 25.9413C178.41 26.6142 178.805 27.3894 179.042 28.2701C179.279 29.1509 179.398 30.0735 179.398 31.0388Z" fill="#262167"/>
<path d="M199.927 38.0273V29.1949C199.927 28.4197 199.799 27.8465 199.545 27.4775C199.289 27.1081 198.803 26.9239 198.086 26.9239C197.652 26.9239 197.147 27.0185 196.57 27.2077C195.994 27.397 195.508 27.6245 195.112 27.8892C195.15 28.1918 195.179 28.5043 195.198 28.8268C195.217 29.1485 195.226 29.4419 195.226 29.7067V38.0273H191.18C191.18 36.4938 191.175 34.9743 191.166 33.4694C191.156 31.9645 191.153 30.445 191.153 28.9115C191.153 27.6049 190.591 26.9521 189.471 26.9521C188.996 26.9521 188.489 27.0476 187.948 27.2364C187.405 27.4257 186.888 27.6713 186.394 27.9738V38.0273H182.32V24.0837H186.139L186.223 25.4749L186.337 25.5318C187.134 24.9267 187.972 24.4818 188.855 24.1975C189.735 23.9136 190.509 23.7712 191.172 23.7712C192.747 23.7712 193.875 24.3772 194.558 25.5887C194.898 25.3239 195.282 25.0828 195.71 24.8649C196.136 24.6469 196.578 24.4581 197.032 24.2966C197.487 24.1365 197.932 24.0082 198.369 23.9136C198.805 23.819 199.213 23.7712 199.592 23.7712C200.521 23.7712 201.275 23.9045 201.853 24.1693C202.432 24.434 202.877 24.7934 203.19 25.2484C203.503 25.7028 203.716 26.2283 203.83 26.8247C203.944 27.4207 204.001 28.0407 204.001 28.6844V38.0273H199.927Z" fill="#262167"/>
<defs>
<linearGradient id="paint0_linear_979_2182" x1="-0.253044" y1="46.1164" x2="54.2874" y2="15.9065" gradientUnits="userSpaceOnUse">
<stop stop-color="#D32426"/>
<stop offset="1" stop-color="#262167"/>
</linearGradient>
</defs>
</svg>
