<svg width="25" height="29" viewBox="0 0 25 29" fill="none" xmlns="http://www.w3.org/2000/svg">
  <path d="M0 7.46616V21.533C0.730699 21.9426 1.45443 22.3482 2.3491 22.8495C2.39235 22.2417 2.48766 9.29148 2.50774 8.88023C5.76114 7.02864 8.95634 5.21008 12.2011 3.36301C15.4707 5.2269 18.6926 7.06351 21.8839 8.88269V20.1149C18.6467 21.9593 15.4504 23.7801 12.1995 25.6325C10.4456 24.6295 8.7401 23.6541 7.09014 22.7104V11.5999C8.79155 10.6338 10.4747 9.67772 12.1905 8.70321C13.9511 9.70725 15.6599 10.6816 17.3377 11.6384V17.2947L11.9337 20.4754L11.9531 14.3806C11.9531 14.3806 13.7308 13.2843 14.7685 12.6544C13.8673 12.1358 12.9724 11.6339 12.1964 11.1876C11.1884 11.7674 10.2208 12.3239 9.26706 12.8726V21.4828C10.2794 22.0585 11.2737 22.6238 12.205 23.1536C14.8321 21.6549 17.314 20.2387 19.8084 18.8158V10.1747C17.2299 8.70567 14.6933 7.26042 12.1935 5.8361C9.59665 7.32052 7.11371 8.73993 4.6033 10.1749V24.1679C7.14445 25.62 9.6567 27.0548 12.1862 28.5C14.3524 27.256 16.3927 26.0909 18.4267 24.915C20.4483 23.7462 22.5443 22.6983 24.3871 21.4407V7.44913C20.2991 5.11839 16.2461 2.80756 12.1987 0.499998C8.06597 2.86007 4.01997 5.1705 0 7.46616Z" fill="url(#paint0_linear_1016_39101)" />
  <defs>
    <linearGradient id="paint0_linear_1016_39101" x1="-0.114278" y1="21.3268" x2="24.5169" y2="7.68357" gradientUnits="userSpaceOnUse">
      <stop stop-color="#D32426" />
      <stop offset="1" stop-color="#262167" />
    </linearGradient>
  </defs>
</svg>