<svg width="34" height="34" viewBox="0 0 34 34" fill="none" xmlns="http://www.w3.org/2000/svg">
<path d="M25.9847 18.5131C25.8223 18.3504 25.6294 18.2214 25.4171 18.1334C25.2048 18.0453 24.9772 18 24.7474 18C24.5176 18 24.29 18.0453 24.0777 18.1334C23.8654 18.2214 23.6725 18.3504 23.5102 18.5131L20.7207 21.3026C19.4274 20.9176 17.0142 20.0426 15.4847 18.5131C13.9552 16.9836 13.0802 14.5704 12.6952 13.2771L15.4847 10.4876C15.6473 10.3252 15.7764 10.1324 15.8644 9.92007C15.9524 9.70776 15.9978 9.48019 15.9978 9.25035C15.9978 9.02052 15.9524 8.79294 15.8644 8.58064C15.7764 8.36834 15.6473 8.17548 15.4847 8.0131L8.48466 1.0131C8.32228 0.850447 8.12943 0.721406 7.91712 0.633362C7.70482 0.545318 7.47724 0.5 7.24741 0.5C7.01758 0.5 6.79 0.545318 6.5777 0.633362C6.3654 0.721406 6.17254 0.850447 6.01016 1.0131L1.26416 5.7591C0.599161 6.4241 0.22466 7.3376 0.23866 8.27035C0.27891 10.7624 0.938661 19.4179 7.76016 26.2394C14.5817 33.0609 23.2372 33.7189 25.7309 33.7609H25.7799C26.7039 33.7609 27.5772 33.3969 28.2387 32.7354L32.9847 27.9894C33.1473 27.827 33.2764 27.6341 33.3644 27.4218C33.4524 27.2095 33.4978 26.9819 33.4978 26.7521C33.4978 26.5223 33.4524 26.2947 33.3644 26.0824C33.2764 25.8701 33.1473 25.6772 32.9847 25.5149L25.9847 18.5131ZM25.7624 30.2591C23.5784 30.2224 16.1059 29.6361 10.2347 23.7631C4.34416 17.8726 3.77366 10.3739 3.73866 8.2336L7.24741 4.72485L11.7729 9.25035L9.51016 11.5131C9.30447 11.7186 9.15324 11.9722 9.07013 12.2508C8.98702 12.5295 8.97466 12.8245 9.03416 13.1091C9.07616 13.3104 10.1034 18.0826 13.0084 20.9876C15.9134 23.8926 20.6857 24.9199 20.8869 24.9619C21.1714 25.023 21.4666 25.0117 21.7455 24.9288C22.0245 24.8459 22.278 24.6942 22.4829 24.4876L24.7474 22.2249L29.2729 26.7504L25.7624 30.2591Z" fill="#262267"/>
</svg>
