<svg width="24" height="25" viewBox="0 0 24 25" fill="none" xmlns="http://www.w3.org/2000/svg">
<path d="M21.3333 12.4297C21.3333 9.82969 20.428 7.62435 18.6173 5.81369C16.8067 4.00302 14.6009 3.09724 12 3.09635V0.429688C13.6667 0.429688 15.228 0.746576 16.684 1.38035C18.14 2.01413 19.4067 2.86969 20.484 3.94702C21.5613 5.02435 22.4169 6.29102 23.0507 7.74702C23.6844 9.20302 24.0009 10.7639 24 12.4297H21.3333ZM16 12.4297C16 11.3186 15.6111 10.3741 14.8333 9.59635C14.0556 8.81858 13.1111 8.42969 12 8.42969V5.76302C13.8444 5.76302 15.4169 6.41324 16.7173 7.71369C18.0178 9.01413 18.6676 10.5861 18.6667 12.4297H16ZM22.6 24.4964C19.8222 24.4964 17.0778 23.891 14.3667 22.6804C11.6556 21.4697 9.18889 19.7528 6.96667 17.5297C4.74444 15.3066 3.028 12.8399 1.81733 10.1297C0.606667 7.41947 0.000888889 4.67502 0 1.89635C0 1.49635 0.133333 1.16302 0.4 0.896354C0.666667 0.629687 1 0.496354 1.4 0.496354H6.8C7.11111 0.496354 7.38889 0.602132 7.63333 0.813687C7.87778 1.02524 8.02222 1.27502 8.06667 1.56302L8.93333 6.22969C8.97778 6.58524 8.96667 6.88524 8.9 7.12969C8.83333 7.37413 8.71111 7.58524 8.53333 7.76302L5.3 11.0297C5.74444 11.8519 6.272 12.6461 6.88267 13.4124C7.49333 14.1786 8.16578 14.9177 8.9 15.6297C9.58889 16.3186 10.3111 16.9577 11.0667 17.547C11.8222 18.1364 12.6222 18.675 13.4667 19.163L16.6 16.0297C16.8 15.8297 17.0613 15.6799 17.384 15.5804C17.7067 15.4808 18.0231 15.4528 18.3333 15.4964L22.9333 16.4297C23.2444 16.5186 23.5 16.6799 23.7 16.9137C23.9 17.1475 24 17.4084 24 17.6964V23.0964C24 23.4964 23.8667 23.8297 23.6 24.0964C23.3333 24.363 23 24.4964 22.6 24.4964Z" fill="black"/>
</svg>
