<svg width="28" height="36" viewBox="0 0 28 36" fill="none" xmlns="http://www.w3.org/2000/svg">
<path d="M14.0001 21.5C17.8606 21.5 21.0001 18.3605 21.0001 14.5C21.0001 10.6395 17.8606 7.5 14.0001 7.5C10.1396 7.5 7.00011 10.6395 7.00011 14.5C7.00011 18.3605 10.1396 21.5 14.0001 21.5ZM14.0001 11C15.9304 11 17.5001 12.5698 17.5001 14.5C17.5001 16.4303 15.9304 18 14.0001 18C12.0699 18 10.5001 16.4303 10.5001 14.5C10.5001 12.5698 12.0699 11 14.0001 11Z" fill="#262267"/>
<path d="M12.9852 35.1745C13.2813 35.386 13.6362 35.4997 14.0002 35.4997C14.3641 35.4997 14.719 35.386 15.0152 35.1745C15.5472 34.7983 28.0509 25.77 28.0002 14.5C28.0002 6.78075 21.7194 0.5 14.0002 0.5C6.2809 0.5 0.000154066 6.78075 0.000154066 14.4913C-0.0505959 25.77 12.4532 34.7983 12.9852 35.1745ZM14.0002 4C19.7909 4 24.5002 8.70925 24.5002 14.5088C24.5369 22.2753 16.8212 29.249 14.0002 31.5363C11.1809 29.2473 3.4634 22.2718 3.50015 14.5C3.50015 8.70925 8.2094 4 14.0002 4Z" fill="#262267"/>
</svg>
