<svg width="18" height="21" viewBox="0 0 18 21" fill="none" xmlns="http://www.w3.org/2000/svg">
<path d="M12.025 17.137L12.1885 17.1589C12.2041 17.0426 12.227 16.9406 12.2565 16.8522L12.299 16.7248L12.183 16.6574L5.13295 12.5574L5.03007 12.4975L4.94083 12.5763C4.67151 12.8139 4.37086 12.9997 4.03822 13.134L4.03797 13.1341C3.70797 13.268 3.36239 13.335 3 13.335C2.20993 13.335 1.54371 13.0604 0.991673 12.5083C0.439634 11.9563 0.165 11.2901 0.165 10.5C0.165 9.70993 0.439634 9.04371 0.991673 8.49167C1.54371 7.93963 2.20993 7.665 3 7.665C3.36246 7.665 3.70809 7.7317 4.03812 7.86496C4.37081 7.99995 4.67149 8.18607 4.94083 8.42372L5.03007 8.50246L5.13295 8.44263L12.183 4.34263L12.299 4.27516L12.2565 4.14782C12.2271 4.05938 12.2041 3.95747 12.1886 3.84125C12.1728 3.72253 12.165 3.60882 12.165 3.5C12.165 2.70993 12.4396 2.04371 12.9917 1.49167C13.5437 0.939634 14.2099 0.665 15 0.665C15.7901 0.665 16.4563 0.939634 17.0083 1.49167C17.5604 2.04371 17.835 2.70993 17.835 3.5C17.835 4.29007 17.5604 4.95629 17.0083 5.50833C16.4563 6.06037 15.7901 6.335 15 6.335C14.6376 6.335 14.292 6.26799 13.962 6.1341L13.9618 6.134C13.6291 5.99968 13.3285 5.81392 13.0592 5.57628L12.9699 5.49754L12.8671 5.55737L5.81705 9.65737L5.70102 9.72484L5.74347 9.85218C5.77296 9.94065 5.79591 10.0426 5.81146 10.1589L5.975 10.137M12.025 17.137L12.1886 17.1587C12.1728 17.2775 12.165 17.3912 12.165 17.5C12.165 18.2901 12.4396 18.9563 12.9917 19.5083C13.5437 20.0604 14.2099 20.335 15 20.335C15.7901 20.335 16.4563 20.0604 17.0083 19.5083C17.5604 18.9563 17.835 18.2901 17.835 17.5C17.835 16.7099 17.5604 16.0437 17.0083 15.4917C16.4563 14.9396 15.7901 14.665 15 14.665C14.6376 14.665 14.2919 14.7317 13.9619 14.8649C13.6292 14.9999 13.3285 15.1861 13.0592 15.4237L12.9699 15.5025L12.8671 15.4426L5.81705 11.3426L5.70102 11.2752L5.74347 11.1478C5.77293 11.0594 5.79589 10.9572 5.81144 10.8403L5.81146 10.8401C5.82723 10.7222 5.835 10.6088 5.835 10.5C5.835 10.3912 5.82723 10.2775 5.81144 10.1588L5.975 10.137M12.025 17.137C12.0083 17.2623 12 17.3833 12 17.5C12 18.3333 12.2917 19.0417 12.875 19.625C13.4583 20.2083 14.1667 20.5 15 20.5C15.8333 20.5 16.5417 20.2083 17.125 19.625C17.7083 19.0417 18 18.3333 18 17.5C18 16.6667 17.7083 15.9583 17.125 15.375C16.5417 14.7917 15.8333 14.5 15 14.5C14.6167 14.5 14.25 14.5707 13.9 14.712C13.55 14.854 13.2333 15.05 12.95 15.3L5.9 11.2C5.93333 11.1 5.95833 10.9873 5.975 10.862C5.99167 10.7373 6 10.6167 6 10.5C6 10.3833 5.99167 10.2623 5.975 10.137M12.025 17.137L5.9 9.8C5.93333 9.9 5.95833 10.0123 5.975 10.137" fill="#262267" stroke="#262267" stroke-width="0.33"/>
</svg>
