<svg width="40" height="40" viewBox="0 0 40 40" fill="none" xmlns="http://www.w3.org/2000/svg">
  <path d="M20.0456 0H19.9544C8.9339 0 0 8.93392 0 19.9545V20.0455C0 31.0661 8.9339 40 19.9544 40H20.0456C31.0661 40 40 31.0661 40 20.0455V19.9545C40 8.93392 31.0661 0 20.0456 0Z" fill="white" />
  <path d="M7.57879 19.3137C7.63485 19.2856 7.69093 19.259 7.74558 19.2338C8.69573 18.7937 9.65849 18.3817 10.6198 17.9697C10.6717 17.9697 10.7586 17.9095 10.8076 17.8899C10.8819 17.8576 10.9562 17.8268 11.0304 17.7946C11.1734 17.7329 11.3163 17.6726 11.4579 17.611C11.7438 17.4891 12.0282 17.3671 12.3141 17.2452L14.0252 16.5123C15.1659 16.0246 16.3081 15.5355 17.4488 15.0478C18.5896 14.5601 19.7317 14.0711 20.8724 13.5834C22.0132 13.0957 23.1553 12.6066 24.296 12.1189C25.4368 11.6312 26.5789 11.1421 27.7197 10.6545C27.9733 10.5451 28.248 10.3826 28.5199 10.3349C28.7483 10.2943 28.9711 10.2158 29.2009 10.1724C29.6368 10.0897 30.1174 10.0561 30.535 10.2368C30.6794 10.2999 30.8125 10.3882 30.9232 10.4989C31.453 11.023 31.3787 11.8835 31.2666 12.6206C30.486 17.7581 29.7054 22.897 28.9234 28.0346C28.8169 28.7395 28.6712 29.513 28.1148 29.9587C27.644 30.3356 26.9741 30.3777 26.3925 30.2179C25.8109 30.0568 25.298 29.719 24.7949 29.3869C22.7083 28.0051 20.6202 26.6233 18.5335 25.2416C18.0374 24.9136 17.4853 24.4848 17.4909 23.8892C17.4937 23.5305 17.7081 23.2109 17.9267 22.9265C19.7401 20.5609 22.3565 18.9353 24.303 16.679C24.5777 16.3609 24.7935 15.7864 24.4166 15.6028C24.1923 15.4935 23.9345 15.642 23.7299 15.7836C21.1569 17.5703 18.5854 19.3585 16.0124 21.1453C15.173 21.7283 14.2929 22.3281 13.2811 22.471C12.3758 22.5999 11.4649 22.3477 10.589 22.0898C9.85469 21.874 9.12173 21.6526 8.39161 21.4242C8.00342 21.3036 7.60262 21.1733 7.30272 20.9C7.00282 20.6268 6.83047 20.1671 7.01125 19.8028C7.12477 19.5743 7.34479 19.43 7.57602 19.3123L7.57879 19.3137Z" fill="#262267" />
</svg>