<svg width="41" height="41" viewBox="0 0 41 41" fill="none" xmlns="http://www.w3.org/2000/svg">
<rect x="0.5" y="0.5" width="40" height="40" rx="11.5" stroke="#262267"/>
<g clip-path="url(#clip0_1017_52329)">
<path d="M29.8625 23.2567C29.8625 23.2567 31.8029 25.1731 32.2829 26.0599C32.2922 26.0727 32.2995 26.0868 32.3045 26.1019C32.5001 26.4295 32.5481 26.6863 32.4521 26.8759C32.2901 27.1891 31.7417 27.3463 31.5557 27.3595H28.1261C27.8873 27.3595 27.3905 27.2971 26.7857 26.8795C26.3237 26.5567 25.8641 26.0251 25.4189 25.5055C24.7541 24.7339 24.1793 24.0643 23.5973 24.0643C23.5238 24.0641 23.4508 24.0763 23.3813 24.1003C22.9409 24.2395 22.3817 24.8671 22.3817 26.5387C22.3817 27.0619 21.9689 27.3595 21.6797 27.3595H20.1089C19.5737 27.3595 16.7873 27.1723 14.3165 24.5671C11.2889 21.3775 8.56971 14.9791 8.54331 14.9227C8.37411 14.5087 8.72931 14.2831 9.11331 14.2831H12.5765C13.0409 14.2831 13.1921 14.5639 13.2977 14.8159C13.4201 15.1051 13.8737 16.2619 14.6177 17.5615C15.8225 19.6759 16.5629 20.5363 17.1545 20.5363C17.2657 20.5366 17.3749 20.5076 17.4713 20.4523C18.2441 20.0275 18.1001 17.2675 18.0641 16.6987C18.0641 16.5883 18.0629 15.4663 17.6669 14.9239C17.3837 14.5351 16.9013 14.3839 16.6097 14.3287C16.6877 14.2159 16.8533 14.0431 17.0657 13.9411C17.5949 13.6771 18.5513 13.6387 19.5005 13.6387H20.0273C21.0569 13.6531 21.3233 13.7191 21.6977 13.8139C22.4513 13.9939 22.4657 14.4823 22.3997 16.1455C22.3805 16.6207 22.3601 17.1559 22.3601 17.7859C22.3601 17.9203 22.3541 18.0703 22.3541 18.2227C22.3313 19.0759 22.3013 20.0371 22.9037 20.4319C22.9818 20.4805 23.0721 20.5063 23.1641 20.5063C23.3729 20.5063 23.9981 20.5063 25.6937 17.5963C26.4377 16.3111 27.0137 14.7955 27.0533 14.6815C27.0869 14.6179 27.1877 14.4391 27.3101 14.3671C27.3972 14.3207 27.4947 14.2976 27.5933 14.2999H31.6673C32.1113 14.2999 32.4125 14.3671 32.4713 14.5351C32.5697 14.8075 32.4521 15.6391 30.5921 18.1543C30.2789 18.5731 30.0041 18.9355 29.7629 19.2523C28.0769 21.4651 28.0769 21.5767 29.8625 23.2567Z" fill="#262267"/>
</g>
<defs>
<clipPath id="clip0_1017_52329">
<rect width="24" height="24" fill="white" transform="translate(8.5 8.5)"/>
</clipPath>
</defs>
</svg>
