<svg width="40" height="40" viewBox="0 0 40 40" fill="none" xmlns="http://www.w3.org/2000/svg">
  <path d="M20.0455 0H19.9545C8.93391 0 0 8.93392 0 19.9545V20.0455C0 31.0661 8.93391 40 19.9545 40H20.0455C31.0661 40 40 31.0661 40 20.0455V19.9545C40 8.93392 31.0661 0 20.0455 0Z" fill="white" />
  <path d="M23.8989 25.8515C18.7796 25.8515 14.6147 21.6851 14.6133 16.5658C14.6147 15.2681 15.6713 14.2129 16.9662 14.2129C17.0994 14.2129 17.2311 14.2241 17.3572 14.2465C17.6347 14.2928 17.8982 14.3867 18.1406 14.5282C18.1756 14.5492 18.1994 14.5829 18.2051 14.6221L18.746 18.0317C18.753 18.0709 18.7404 18.1116 18.7138 18.141C18.4153 18.4717 18.0341 18.71 17.6095 18.8291L17.4049 18.8865L17.4819 19.0841C18.1798 20.8611 19.6008 22.2807 21.3792 22.9814L21.5768 23.0599L21.6343 22.8553C21.7534 22.4307 21.9916 22.0495 22.3224 21.751C22.3462 21.7286 22.3784 21.7174 22.4106 21.7174C22.4176 21.7174 22.4247 21.7174 22.4331 21.7188L25.8427 22.2597C25.8833 22.2667 25.9169 22.2891 25.938 22.3242C26.0781 22.5666 26.172 22.8315 26.2196 23.1089C26.2421 23.2323 26.2519 23.3626 26.2519 23.4985C26.2519 24.7948 25.1966 25.8501 23.8989 25.8515Z" fill="#262267" />
  <path d="M32.9758 18.872C32.6998 15.7525 31.2703 12.8586 28.951 10.7242C26.6177 8.57731 23.5907 7.39453 20.4249 7.39453C13.4768 7.39453 7.82361 13.0478 7.82361 19.9959C7.82361 22.3278 8.46684 24.5995 9.68465 26.5782L6.96875 32.5902L15.6644 31.6639C17.1765 32.2833 18.7769 32.5972 20.4235 32.5972C20.8566 32.5972 21.3008 32.5748 21.7465 32.5285C22.1389 32.4865 22.5355 32.4248 22.925 32.3464C28.7436 31.1706 32.9912 26.0065 33.0249 20.0631V19.9959C33.0249 19.6175 33.0081 19.2391 32.9744 18.8733L32.9758 18.872ZM15.9993 29.0251L11.1884 29.538L12.6248 26.3554L12.3375 25.97C12.3165 25.942 12.2955 25.914 12.2716 25.8817C11.0244 24.1594 10.3657 22.1246 10.3657 19.9973C10.3657 14.4506 14.8782 9.93807 20.4249 9.93807C25.6213 9.93807 30.0259 13.9923 30.4505 19.1676C30.4729 19.4451 30.4856 19.724 30.4856 19.9987C30.4856 20.0772 30.4841 20.1542 30.4827 20.2369C30.3762 24.8769 27.1348 28.8177 22.5999 29.8211C22.2538 29.8981 21.8992 29.957 21.5461 29.9948C21.1789 30.0369 20.8019 30.0579 20.4277 30.0579C19.095 30.0579 17.8001 29.8 16.5767 29.2899C16.4408 29.2353 16.3076 29.1764 16.1829 29.1161L16.0007 29.0279L15.9993 29.0251Z" fill="#262267" />
</svg>